<?xml version="1.0" encoding="UTF-8"?>
<svg xmlns="http://www.w3.org/2000/svg" xmlns:xlink="http://www.w3.org/1999/xlink" width="375pt" height="374.999991pt" viewBox="0 0 375 374.999991" version="1.2">
<defs>
<clipPath id="clip1">
  <path d="M 37.5 83.316406 L 327 83.316406 L 327 124 L 37.5 124 Z M 37.5 83.316406 "/>
</clipPath>
<clipPath id="clip2">
  <path d="M 37.5 103 L 327 103 L 327 291.816406 L 37.5 291.816406 Z M 37.5 103 "/>
</clipPath>
</defs>
<g id="surface1">
<g clip-path="url(#clip1)" clip-rule="nonzero">
<path style=" stroke:none;fill-rule:nonzero;fill:rgb(13.328552%,32.939148%,59.999084%);fill-opacity:1;" d="M 306.976562 83.4375 L 57.238281 83.4375 C 46.363281 83.4375 37.542969 92.265625 37.542969 103.144531 L 37.542969 103.757812 C 37.542969 114.636719 46.363281 123.464844 57.238281 123.464844 L 326.671875 123.464844 L 326.671875 103.144531 C 326.671875 92.265625 317.847656 83.4375 306.976562 83.4375 Z M 306.976562 83.4375 "/>
</g>
<g clip-path="url(#clip2)" clip-rule="nonzero">
<path style=" stroke:none;fill-rule:nonzero;fill:rgb(12.939453%,14.509583%,16.079712%);fill-opacity:1;" d="M 57.238281 123.464844 C 46.363281 123.464844 37.542969 114.636719 37.542969 103.757812 L 37.542969 271.980469 C 37.542969 282.863281 46.363281 291.6875 57.238281 291.6875 L 306.976562 291.6875 C 317.847656 291.6875 326.671875 282.863281 326.671875 271.980469 L 326.671875 123.464844 Z M 57.238281 123.464844 "/>
</g>
<path style=" stroke:none;fill-rule:nonzero;fill:rgb(13.328552%,32.939148%,59.999084%);fill-opacity:1;" d="M 251.089844 203.734375 C 251.089844 214.617188 259.914062 223.445312 270.785156 223.445312 L 326.671875 223.445312 C 337.542969 223.445312 336.441406 214.617188 336.441406 203.734375 L 336.441406 188.277344 C 336.441406 177.398438 337.554688 168.570312 326.671875 168.570312 L 270.785156 168.570312 C 259.914062 168.570312 251.089844 177.398438 251.089844 188.277344 Z M 251.089844 203.734375 "/>
<path style=" stroke:none;fill-rule:nonzero;fill:rgb(12.939453%,14.509583%,16.079712%);fill-opacity:1;" d="M 259.597656 196 C 259.597656 202.292969 264.695312 207.40625 270.992188 207.40625 C 277.292969 207.40625 282.390625 202.304688 282.390625 196 C 282.390625 189.710938 277.292969 184.597656 270.992188 184.597656 C 264.707031 184.597656 259.597656 189.710938 259.597656 196 Z M 259.597656 196 "/>
</g>
</svg>
